<svg id="svg2" xmlns:rdf="http://www.w3.org/1999/02/22-rdf-syntax-ns#" xmlns="http://www.w3.org/2000/svg" height="100%" viewBox="0 0 210 56" width="100%" version="1.1" xmlns:cc="http://creativecommons.org/ns#" xmlns:dc="http://purl.org/dc/elements/1.1/">
 <metadata id="metadata30">
  <rdf:RDF>
   <cc:Work rdf:about="">
    <dc:format>image/svg+xml</dc:format>
    <dc:type rdf:resource="http://purl.org/dc/dcmitype/StillImage"/>
    <dc:title>HTML5 Logo</dc:title>
   </cc:Work>
  </rdf:RDF>
 </metadata>
 <title id="title4">HTML5 Logo</title>
 <rect id="rect3009" fill-rule="nonzero" height="98.582" width="141.36" y="-25.531" x="-201.81" fill="#F00"/>
 <polygon id="polygon6" points="404.32,470.82,255.78,512,107.64,470.88,74.633,100.62,437.37,100.62" fill="#e44d26" transform="matrix(0.07605444,0,0,0.07605444,-4.9979434,9.0601222)"/>
 <polygon id="polygon8" points="256,480.52,376.03,447.25,404.27,130.89,256,130.89" fill="#f16529" transform="matrix(0.07605444,0,0,0.07605444,-4.9979434,9.0601222)"/>
 <polygon id="polygon10" points="154.38,313.63,256,313.63,256,268.22,195.91,268.22,191.76,221.72,256,221.72,256,176.3,255.84,176.3,142.13,176.3,143.22,188.49" fill="#ebebeb" transform="matrix(0.07605444,0,0,0.07605444,-4.9979434,9.0601222)"/>
 <polygon id="polygon12" points="255.8,386.21,205.23,372.55,201.99,336.33,177.42,336.33,156.41,336.33,162.77,407.63,255.79,433.46,256,433.4,256,386.15" fill="#ebebeb" transform="matrix(0.07605444,0,0,0.07605444,-4.9979434,9.0601222)"/>
 <path id="path14" fill="#FFF" d="M-0.00016776,8.0016h2.4638v2.4342h2.2538v-2.4342h2.4637v7.3713h-2.4638v-2.4684h-2.2538v2.4684h-2.4637v-7.3704z"/>
 <path id="path16" fill="#FFF" d="M10.421,10.443h-2.1687v-2.4443h6.8028v2.4444h-2.1695v4.9269h-2.4639v-4.9269z"/>
 <path id="path18" fill="#FFF" d="m16.135,8.0016h2.5691l1.5803,2.5901,1.5787-2.5901h2.57v7.3713h-2.4536v-3.6537l-1.6951,2.6209h-0.04238l-1.6962-2.6209v3.6537h-2.4107v-7.3714z"/>
 <path id="path20" fill="#FFF" d="m25.659,8.0016h2.4643v4.9347h3.4648v2.4365h-5.9285v-7.3715z"/>
 <polygon id="polygon22" points="348.94,407.63,349.62,399.96,360.29,280.41,361.4,268.22,349.16,268.22,255.84,268.22,255.84,313.63,311.76,313.63,306.49,372.52,255.84,386.19,255.84,433.44" fill="#FFF" transform="matrix(0.07605444,0,0,0.07605444,-4.9979434,9.0601222)"/>
 <polygon id="polygon24" points="368.51,188.49,369.6,176.3,255.84,176.3,255.84,204.51,255.84,221.6,255.84,221.72,365.38,221.72,365.38,221.72,365.53,221.72,366.44,211.51" fill="#FFF" transform="matrix(0.07605444,0,0,0.07605444,-4.9979434,9.0601222)"/>
 <path id="path3083" d="m49.992,26.62c0.52812,0.000019,0.7922,0.19618,0.79222,0.58852v0.07919c-0.64888,0.62624-1.1619,1.5467-1.5392,2.7615-0.36973,1.2072-0.55458,2.5238-0.55456,3.9498-0.000019,0.54326,0.03767,0.95823,0.11319,1.2449,0.07552,0.27916,0.11319,0.42252,0.11319,0.43005-0.89789,1.5769-1.5543,3.1991-1.9692,4.8665-0.15838,0.64134-0.23769,1.2563-0.23768,1.8448-0.000019,0.58096,0.19993,1.1808,0.59984,1.7995v0.0452c-0.000019,0.42252-0.42633,0.63377-1.2789,0.63377-0.36218,0-0.66775-0.10566-0.91672-0.31689-0.3999-0.34708-0.7017-0.67528-0.9054-0.98462-0.21882,0.53569-0.6489,0.92426-1.2902,1.1657-0.2641,0.09059-0.53571,0.13579-0.81487,0.13579s-0.50175-0.05659-0.66773-0.16978c-0.16592-0.11319-0.28672-0.28293-0.36216-0.50928,0.45269-0.61869,0.67905-1.3166,0.67905-2.0937,0-0.27163-0.04906-0.64511-0.14718-1.1204-0.09812-0.47533-0.18871-0.93181-0.27161-1.3694-0.23391-1.2449-0.51307-2.4936-0.83751-3.7461l-0.16978-0.66773c-0.43763,1.3204-0.83751,2.6898-1.1997,4.1083-0.36218,1.4109-0.54326,2.4257-0.54324,3.0444-0.000019,0.61116,0.19993,1.2261,0.59984,1.8448v0.0452c-0.000019,0.42252-0.42631,0.63377-1.2789,0.63377-0.36218,0-0.66775-0.10566-0.91673-0.31689-0.39989-0.34708-0.7017-0.67528-0.9054-0.98462-0.21881,0.53569-0.64888,0.92425-1.2902,1.1657-0.26408,0.09059-0.5357,0.13579-0.81486,0.13579-0.27917,0-0.50175-0.05659-0.66774-0.16978-0.166-0.11319-0.28671-0.28293-0.36216-0.50928,0.4527-0.61869,0.67905-1.3166,0.67905-2.0937-0.000004-0.40744-0.09808-1.0374-0.29426-1.89-0.19617-0.86013-0.40366-1.5694-0.62246-2.1277-0.21126-0.55833-0.40366-0.96198-0.5772-1.211-0.17353-0.25653-0.33576-0.46024-0.48665-0.61115-0.15091-0.15085-0.27162-0.26029-0.36216-0.3282-0.083-0.07552-0.12449-0.14718-0.12449-0.21504-0.000002-0.06799,0.03017-0.13965,0.09053-0.21504,0.06036-0.08306,0.12827-0.16592,0.20372-0.24897,0.19617-0.22636,0.29425-0.67905,0.29426-1.3581-0.000004-1.3732-0.20372-2.6634-0.61115-3.8706-0.39989-1.2072-0.92427-2.1164-1.5731-2.7275v-0.0452c0-0.41497,0.3433-0.62245,1.0299-0.62247,0.69414,0.000019,1.3656,0.39614,2.0145,1.1884,0.39988-0.79222,1.0073-1.1883,1.8221-1.1884,0.43761,0.000019,0.73186,0.05659,0.88277,0.16978,0.24898,0.18871,0.40365,0.35465,0.46402,0.49799-0.45271,0.6036-0.67906,1.3204-0.67905,2.1503-0.000006,0.43007,0.05281,0.92051,0.15844,1.4713,0.10562,0.55079,0.35838,2.1466,0.75828,4.7873,0.39988,2.6408,0.61868,4.1196,0.65642,4.4365,0.39233-1.2525,0.58852-2.0975,0.58852-2.5351,0-0.43761-0.03013-0.77336-0.09053-1.0073-0.06036-0.24142-0.12072-0.41497-0.18108-0.5206-0.05283-0.10566-0.07923-0.17345-0.07923-0.20372-0.000007-0.03013,0.01507-0.06026,0.04527-0.09059,1.1544-1.3355,1.7316-3.3123,1.7316-5.9304,0-0.37723-0.06413-0.74694-0.19238-1.1091s-0.24521-0.62624-0.35084-0.79224c-0.10565-0.16592-0.25653-0.38478-0.45269-0.65641v-0.01159c-0.00002-0.13579,0.08306-0.26029,0.24897-0.37348,0.29425-0.18852,0.58852-0.28293,0.88278-0.28295,0.30178,0.000019,0.54699,0.04153,0.73562,0.12458,0.18871,0.08306,0.34329,0.18098,0.46403,0.29425,0.25653,0.23391,0.45646,0.49043,0.59984,0.7696,0.01545-0.03013,0.03399-0.07166,0.05659-0.12458,0.0226-0.05273,0.07919-0.14718,0.16978-0.28293,0.09059-0.14332,0.19238-0.26406,0.30559-0.36216,0.11319-0.10566,0.26406-0.19993,0.45269-0.28295,0.18871-0.09059,0.39233-0.13579,0.61116-0.13579,0.21878,0.00002,0.41118,0.0226,0.5772,0.06799,0.17345,0.0452,0.30555,0.10179,0.3961,0.16978,0.18871,0.14332,0.31312,0.28674,0.37348,0.43007-0.47535,0.57343-0.713,1.3015-0.713,2.1843,0,0.8677,0.30933,2.769,0.92804,5.704,0.61869,2.9275,0.95821,4.5798,1.0186,4.9571,0.24142-1.26,0.36214-2.1239,0.36216-2.5917-0.00002-0.46778-0.02646-0.82241-0.07919-1.0638-0.05273-0.24144-0.10566-0.40744-0.15838-0.49797-0.0452-0.09812-0.06413-0.16592-0.05659-0.20372,0.0077-0.0452,0.02646-0.10932,0.05659-0.19238,0.03766-0.09059,0.10179-0.27161,0.19238-0.54324,0.09059-0.27161,0.17731-0.54324,0.26029-0.81487,0.08306-0.27914,0.17345-0.6149,0.27163-1.0073,0.09812-0.39988,0.18485-0.78845,0.26029-1.1657,0.16592-0.87521,0.24897-1.7542,0.24899-2.637-0.00002-0.88277-0.19995-1.592-0.59984-2.1277,0.0077-0.01545,0.01545-0.03766,0.0226-0.06799,0.0077-0.03013,0.034-0.08306,0.07919-0.15838,0.05273-0.08306,0.10932-0.15472,0.16978-0.21504,0.16592-0.15085,0.37346-0.22634,0.62245-0.22636,0.25653,0.000019,0.48665,0.04153,0.69039,0.12458,0.21123,0.08306,0.37346,0.18098,0.48665,0.29425,0.25651,0.24899,0.43382,0.50554,0.53192,0.7696,0.27159-0.32442,0.58094-0.60358,0.92804-0.83751,0.34706-0.23387,0.64886-0.35082,0.9054-0.35084" style="text-align:start;" fill="#d4aa00"/>
 <path id="path3085" d="m57.62,40.02c0.16592-0.24897,0.24897-0.58096,0.24897-0.99593,0-0.78468-0.28672-1.6712-0.86013-2.6596l-0.91672-1.5731c-0.03013,1.0488-0.0452,2.803-0.0452,5.2627,0,1.079,0.09812,1.9127,0.29427,2.5012,0.2037,0.58096,0.56209,1.1242,1.0752,1.6297l-0.0452,0.16978c-0.03013,0.11319-0.14332,0.22636-0.33952,0.33952-0.19618,0.11319-0.48288,0.16978-0.86013,0.16978-0.37727,0-0.74696-0.15085-1.1091-0.45269-0.13579-0.11319-0.27918-0.26408-0.43007-0.45271-0.15085-0.18871-0.24144-0.32065-0.27161-0.3961-0.15839,0.3018-0.38103,0.58473-0.66775,0.84881-0.12825,0.12072-0.29048,0.22636-0.48665,0.31689-0.18871,0.09059-0.38856,0.13579-0.59984,0.13579-0.21125,0-0.39612-0.0226-0.55456-0.06799-0.42252-0.13579-0.63377-0.33952-0.63377-0.61115,0.51305-0.50552,0.86768-1.0488,1.0638-1.6297,0.20372-0.5885,0.30557-1.5165,0.30557-2.7841,0-1.2751-0.14332-2.2258-0.43005-2.852-0.12072-0.26406-0.24523-0.47154-0.37348-0.62245-0.12072-0.15838-0.22259-0.2754-0.30557-0.35084-0.08306-0.07552-0.12458-0.14718-0.12458-0.21504,0-0.07552,0.04153-0.15085,0.12458-0.22636,0.08306-0.07552,0.18485-0.18485,0.30557-0.3282,0.12825-0.14332,0.25276-0.34329,0.37348-0.59984,0.12072-0.25651,0.22257-0.66394,0.30557-1.2223,0.08305-0.56586,0.12439-1.3128,0.12439-2.2409,0-0.92802-0.09812-1.6712-0.29425-2.2295-0.19617-0.55833-0.55456-1.0902-1.0752-1.5958l0.0452-0.16978c0.03013-0.10566,0.14332-0.215,0.33952-0.3282,0.20372-0.11319,0.44137-0.16978,0.713-0.16978,0.27161,0.000019,0.50552,0.0452,0.70168,0.13579,0.52816,0.22638,0.90917,0.57722,1.1431,1.0525,0.5055-0.79222,1.128-1.1883,1.8674-1.1884,0.21127,0.00002,0.39988,0.0226,0.56588,0.06799,0.41497,0.12825,0.62245,0.32822,0.62247,0.59984-0.62624,0.64888-1.0261,1.377-1.1997,2.1843l3.1463,6.3605,3.0671-6.1115c-0.14332-0.8903-0.55835-1.7014-1.2449-2.4333,0.0226-0.13579,0.11686-0.27916,0.28293-0.43007,0.07552-0.0678,0.19238-0.12458,0.35086-0.16978,0.16592-0.0452,0.40363-0.0678,0.713-0.06799,0.31687,0.000019,0.65262,0.13579,1.0073,0.40744,0.13579,0.10566,0.26406,0.23014,0.3848,0.37348,0.12825,0.13579,0.20747,0.23014,0.23768,0.28293,0.03766,0.05292,0.0678,0.09426,0.09059,0.12458,0.46778-0.79222,1.0487-1.1883,1.7429-1.1884,0.21125,0.000019,0.3961,0.0226,0.55456,0.06799,0.42252,0.12825,0.63377,0.32822,0.63379,0.59984-0.52062,0.50552-0.87902,1.0374-1.0752,1.5958-0.19618,0.55835-0.29427,1.4336-0.29427,2.6257s0.10566,2.1051,0.31691,2.7388c0.09059,0.27163,0.18852,0.50175,0.29425,0.69037,0.11319,0.18118,0.21502,0.30935,0.30557,0.3848,0.09059,0.06799,0.16592,0.13579,0.22636,0.20372,0.06026,0.06799,0.09059,0.13579,0.09059,0.20372-0.000019,0.06799-0.04153,0.13965-0.12458,0.21504-0.08306,0.07552-0.18485,0.19238-0.30557,0.35084-0.12072,0.15085-0.24523,0.3584-0.37348,0.62245-0.12072,0.2641-0.22259,0.66775-0.30557,1.211-0.08306,0.54324-0.12458,1.2713-0.12458,2.1843,0,0.9054,0.09812,1.6524,0.29427,2.2409,0.19615,0.58096,0.55454,1.1242,1.0752,1.6297l-0.0452,0.16978c-0.03013,0.11319-0.14332,0.22636-0.33952,0.33952-0.19618,0.11319-0.47535,0.16978-0.83749,0.16978-0.36218,0-0.76206-0.19617-1.1997-0.5885-0.22636-0.19618-0.39612-0.43384-0.50928-0.713l-0.21504,0.3282c-0.13579,0.21125-0.3584,0.42629-0.66773,0.64509-0.30935,0.2188-0.60362,0.3282-0.88277,0.3282-0.27918,0-0.49799-0.0226-0.65643-0.06799-0.43007-0.13579-0.64511-0.33952-0.64509-0.61116,0.51305-0.50552,0.86766-1.0488,1.0638-1.6297,0.2037-0.5885,0.30557-1.6901,0.30557-3.3047,0-1.6222-0.01159-2.9991-0.03399-4.1309l-0.69039,1.2449c-0.71677,1.2978-1.0752,2.2409-1.0752,2.8294,0,0.34708,0.06799,0.62247,0.20372,0.82617-0.0077,0.03766-0.02646,0.07919-0.05659,0.12458-0.01545,0.0226-0.03767,0.0452-0.06799,0.0678-0.0226,0.01545-0.05659,0.03399-0.10179,0.05659-0.03766,0.01545-0.08673,0.03013-0.14718,0.0452-0.05273,0.0077-0.13212,0.01159-0.23766,0.01159-0.09812,0-0.2075-0.02646-0.32822-0.07919-0.30935-0.14332-0.54701-0.38101-0.713-0.713-0.30935,0.52816-0.66396,0.79224-1.0638,0.79224-0.39235,0-0.59984-0.10179-0.62245-0.30559" style="text-align:start;" fill="#d4aa00"/>
 <path id="path3087" d="m76.599,44.864c-0.70924-0.45269-1.2525-0.67905-1.6297-0.67905-0.37726,0-0.74319,0.11319-1.0978,0.33952-0.35463,0.22636-0.63379,0.33952-0.83749,0.33952-0.49043,0-1.0299-0.43006-1.6184-1.2902-0.10565,0.25653-0.2754,0.48665-0.5093,0.69037-0.44516,0.39988-0.85258,0.59982-1.2223,0.59982-0.36216,0-0.64132-0.05659-0.83749-0.16978-0.19619-0.11319-0.30935-0.22634-0.33952-0.33952l-0.0452-0.16978c0.51305-0.33197,0.83372-0.63377,0.962-0.9054,0.06026-0.14332,0.11319-0.26029,0.15838-0.35084,0.05273-0.09812,0.09059-0.24897,0.11319-0.45269,0.03013-0.20372,0.05273-0.36595,0.06799-0.48667,0.0226-0.12825,0.03767-0.33574,0.0452-0.62245,0.0077-0.28672,0.01159-0.51684,0.01159-0.69037v-0.84883c0-1.7429-0.26784-2.9312-0.80353-3.565-0.12072-0.14332-0.22259-0.25276-0.30559-0.3282-0.08306-0.07552-0.12439-0.14718-0.12439-0.21504,0-0.0678,0.04153-0.13965,0.12439-0.21504,0.08306-0.07552,0.18485-0.18485,0.30559-0.3282,0.12825-0.14332,0.25276-0.34329,0.37348-0.59984,0.2867-0.61114,0.43005-1.5656,0.43005-2.8633,0-1.3053-0.10179-2.2446-0.30557-2.8181-0.19617-0.58096-0.55079-1.1167-1.0638-1.6071,0-0.27161,0.21125-0.47156,0.63377-0.59984,0.15838-0.0452,0.35084-0.0678,0.5772-0.06799,0.23389,0.00002,0.46024,0.04153,0.67905,0.12458,0.22636,0.08306,0.40744,0.18098,0.54324,0.29425,0.28672,0.23391,0.49799,0.49043,0.63379,0.7696,0.03767-0.07552,0.12825-0.19617,0.27161-0.36216,0.15085-0.17345,0.29427-0.3131,0.43007-0.41876,0.36969-0.27161,0.70545-0.40742,1.0073-0.40744,0.30933,0.00002,0.54322,0.0226,0.70168,0.06799,0.16592,0.0452,0.2867,0.10179,0.36216,0.16978,0.16592,0.15085,0.26029,0.29427,0.28293,0.43007-0.51307,0.49043-0.87145,1.0261-1.0752,1.6071-0.19618,0.57343-0.29427,1.3204-0.29425,2.2409-0.00002,0.91297,0.04153,1.6524,0.12439,2.2182,0.08306,0.55835,0.18485,0.96578,0.30557,1.2223,0.12072,0.25654,0.24144,0.4565,0.36216,0.59984,0.12825,0.14332,0.23389,0.25276,0.3169,0.3282,0.08306,0.07552,0.12439,0.14718,0.12439,0.21504-0.000019,0.06799-0.04153,0.13965-0.12439,0.21504-0.08306,0.07552-0.18871,0.18871-0.3169,0.33952-0.12072,0.14332-0.24144,0.33952-0.36216,0.58852-0.28672,0.58852-0.43007,1.5769-0.43005,2.9652l-0.01159,1.2676c-0.000019,0.33199,0.0226,0.54703,0.0678,0.64511,0.0452,0.09812,0.14718,0.14718,0.30559,0.14718l1.1317-0.06799c0.49043,0,0.85636-0.05659,1.0978-0.16978s0.50929-0.31689,0.80355-0.61114c0.18098,0,0.31689,0.14332,0.40744,0.43005,0.03013,0.10566,0.0452,0.24144,0.0452,0.40744,0,0.16592-0.05273,0.33952-0.15838,0.5206-0.15839,0.27163-0.32067,0.45271-0.48665,0.54324,0.43006,0.36216,0.64509,0.73564,0.64509,1.1204,0,0.46024-0.15085,0.72809-0.45269,0.80353" style="text-align:start;" fill="#d4aa00"/>
</svg>
